<svg xmlns="http://www.w3.org/2000/svg" viewBox="0 0 513.9 269.67"><defs><style>.cls-1{fill:#83af51;}.cls-2{fill:#5393cf;}.cls-3{fill:#507f8e;}.cls-4{fill:#e77d0a;}</style></defs><title>Asset 1</title><g id="Layer_2" data-name="Layer 2"><g id="Lag_1" data-name="Lag 1"><path class="cls-1" d="M512.83,194l-14.11-20.32a5.84,5.84,0,0,0-1-1.08L459.39,138.8a5.84,5.84,0,0,0-1.16-.8L435.8,126.13a5.19,5.19,0,0,0-1.2-.48l-23.55-6.52a4.23,4.23,0,0,1-.63-.21L383.19,108a6.24,6.24,0,0,0-1.26-.36l-11.06-1.81a6,6,0,0,1-1.85-.63L341.58,90.51A6.14,6.14,0,0,0,339,89.8l-37.28-1.3a5.9,5.9,0,0,1-2.15-.48l-60.76-26a6.21,6.21,0,0,1-.81-.42L191.67,32.89a6,6,0,0,0-3.16-.9H185a6,6,0,0,0-3.24.95L167.69,42a6,6,0,0,1-3.18,1l-15.11.15a5.9,5.9,0,0,1-2.67-.61l-3.58-1.73a5.92,5.92,0,0,0-2.62-.6h-6.28a6,6,0,0,0-3.94,1.47l-3.39,3A6,6,0,0,1,123,46.06h-4.06a6,6,0,0,1-4.7-2.27L104.5,31.54a5.66,5.66,0,0,0-1.08-1.05l-6.28-4.75A6.07,6.07,0,0,1,95.61,24l-3.7-6.16a6,6,0,0,0-2.51-2.31l-5.18-2.52L77.74,9.68a6,6,0,0,0-3.92-.57l-7.41,1.45-.52.13-2.73.79A6,6,0,0,1,58.58,11L55.87,9.46A6,6,0,0,0,53,8.7H20.53a6,6,0,0,0-4.48,2l-5,5.56a5.57,5.57,0,0,0-.89,1.32L4.1,29.75A6,6,0,0,0,3.69,34l3,11a6,6,0,0,1,.15,2.49L6,53.59a6.13,6.13,0,0,1-.45,1.57l-5,11.13a6,6,0,0,0,.69,6.06L31.82,113a6,6,0,0,1,1.2,3.93l-.63,11.74a6,6,0,0,0,1.41,4.19L54.22,157l.22.27,18.39,24.53a6,6,0,0,0,2,1.67l42.86,23.2a5.5,5.5,0,0,0,.6.28l11.68,4.74,21.58,7.54c.21.07.42.16.62.25l19.77,9.47a5.54,5.54,0,0,0,1.26.44l12.37,2.82a6.38,6.38,0,0,1,1.35.48l7.2,3.61a1.51,1.51,0,0,1,.28.15l6.7,3.8a5.7,5.7,0,0,0,1.72.65l11.12,2.35c.2.05.41.1.61.17l28.73,9.35a5.2,5.2,0,0,0,.68.17L279,260l35.26,7.57a6,6,0,0,0,.74.11l23.17,2a6.23,6.23,0,0,0,1.22,0L355,267.78a6,6,0,0,0,5.16-4.74h0a6,6,0,0,1,5-4.71l2.52-.36a6,6,0,0,0,3.2-1.51l5.13-4.7a6,6,0,0,1,3.93-1.57l21.67-.44a6.08,6.08,0,0,1,3.3.91l6.19,3.87a6,6,0,0,0,6.69-.23l6.85-5a6,6,0,0,0,2.38-6l-1.74-9.14a6,6,0,0,1,2.25-5.87l23-17.66a6,6,0,0,1,3.81-1.24l16.9.44a6,6,0,0,0,2.19-.36c3.67-1.32,15.68-5.62,16-5.18s10.54-.36,18.89-1A6,6,0,0,0,512.83,194Z"/><path class="cls-2" d="M507.59,181.51l-13.81-19.9a5.63,5.63,0,0,0-.95-1.06l-37.58-33.11a5.59,5.59,0,0,0-1.13-.79l-22-11.63a6.31,6.31,0,0,0-1.18-.47l-23.07-6.38a6.45,6.45,0,0,1-.62-.21l-26.67-10.7a6,6,0,0,0-1.24-.34l-10.83-1.78a6.22,6.22,0,0,1-1.82-.62L339.85,80.13a5.9,5.9,0,0,0-2.57-.69l-36.52-1.27a6.1,6.1,0,0,1-2.1-.47L239.14,52.26a5.91,5.91,0,0,1-.79-.41L193,23.69a5.87,5.87,0,0,0-3.1-.88H186.5a5.87,5.87,0,0,0-3.18.93l-13.8,8.88a5.93,5.93,0,0,1-3.12.93l-14.8.14A5.81,5.81,0,0,1,149,33.1l-3.5-1.7a5.87,5.87,0,0,0-2.57-.59h-6.15a5.88,5.88,0,0,0-3.86,1.44l-3.32,2.9a5.89,5.89,0,0,1-3.86,1.45h-4a5.86,5.86,0,0,1-4.6-2.23l-9.52-12a5.75,5.75,0,0,0-1.06-1l-6.15-4.65A6,6,0,0,1,98.91,15L95.29,9a5.84,5.84,0,0,0-2.47-2.25L87.75,4.26,81.41,1A5.9,5.9,0,0,0,77.56.4L70.31,1.82l-.51.12-2.68.78a5.86,5.86,0,0,1-4.49-.5L60,.74A5.86,5.86,0,0,0,57.12,0H25.36A5.86,5.86,0,0,0,21,2L16.11,7.41a5.89,5.89,0,0,0-.88,1.29l-6,11.92a5.85,5.85,0,0,0-.4,4.19l3,10.75A5.92,5.92,0,0,1,12,38l-.88,6a5.85,5.85,0,0,1-.45,1.53L5.77,56.41a5.86,5.86,0,0,0,.67,5.94l30,39.8A5.93,5.93,0,0,1,37.6,106L37,117.5a5.86,5.86,0,0,0,1.39,4.11l20,23.62.22.27,18,24a6,6,0,0,0,1.9,1.65l42,22.72a5.3,5.3,0,0,0,.59.27l11.44,4.65,21.14,7.38a5.09,5.09,0,0,1,.6.25l19.37,9.28a6.64,6.64,0,0,0,1.23.43L187,218.91a5.61,5.61,0,0,1,1.32.47l7.06,3.53.27.15,6.56,3.72a5.78,5.78,0,0,0,1.69.64l10.89,2.3.6.16L243.51,239q.33.11.66.18l34.39,6.91,34.53,7.41a6.13,6.13,0,0,0,.73.11l22.69,2a6,6,0,0,0,1.2,0L353,253.77a5.85,5.85,0,0,0,5.06-4.63h0a5.88,5.88,0,0,1,4.92-4.62l2.47-.35a5.86,5.86,0,0,0,3.13-1.48l5-4.6a5.89,5.89,0,0,1,3.84-1.54l21.23-.43a6,6,0,0,1,3.24.89L408,240.8a5.89,5.89,0,0,0,6.56-.22l6.71-4.86a5.88,5.88,0,0,0,2.33-5.85l-1.7-9a5.88,5.88,0,0,1,2.2-5.75l22.54-17.3a5.86,5.86,0,0,1,3.73-1.21l16.56.43a5.79,5.79,0,0,0,2.14-.35c3.6-1.3,15.36-5.5,15.65-5.07s10.32-.36,18.5-.94A5.87,5.87,0,0,0,507.59,181.51Z"/><path class="cls-3" d="M187.09,170.62c3.36-17.22,3.36-17.22,21.2-27.07,6-3.29-20.61-6.33-26.41-2.75-8.32,5.12-8.84,18.45-7.32,23.48C175.61,167.76,186.39,174.18,187.09,170.62Z"/><path class="cls-4" d="M185.25,169.06c3.36-17.22,3.36-17.22,21.21-27.07,6-3.29-20.61-6.33-26.42-2.75-8.31,5.12-8.83,18.45-7.31,23.48C173.78,166.2,184.56,172.62,185.25,169.06Z"/><path class="cls-3" d="M413.48,192.85c-5.84-4.67-18.5.62-24.26,4.37-5.2,3.39-22.07,16.51-11.45,32,1.69,2.46,2.86-7.26,7.84-14.94,2.14-3.32,4.76-7.23,7.38-8,2.41-.67,9,2.39,9.84,1.81,1.57-1.09,0-6.11,1.61-7.41,2.63-2.13,8.35,5.17,11.07,3.61C417.29,203.27,415.14,194.18,413.48,192.85Z"/><path class="cls-3" d="M106.38,33.51c2.64-.18,5,6.72,4.94,9.37,0,1.23-1.06,4.22-2.51,4.25C93,47.51,59.4,32.71,49.53,28.07,46.76,26.77,52.87,13.8,54,16.66c2.89,7.62,1.61,5.58,3.91,7.66,1.87,1.7,7.44,2.07,10,2s8.22-3.05,9.79-1.15c4,4.86,8,10.18,11.74,12.26,2.42,1.36,9.92,3.94,12.56,3.06C104.12,39.76,104.32,33.66,106.38,33.51Z"/><path class="cls-4" d="M106.38,31.28c2.64-.19,5,6.71,4.94,9.36,0,1.23-1.06,4.22-2.51,4.25C93,45.28,59.4,30.47,49.53,25.83c-2.77-1.3,3.34-14.26,4.43-11.41C56.85,22,55.57,20,57.87,22.08c1.87,1.7,7.44,2.07,10,2s8.22-3,9.79-1.14c4,4.85,8,10.17,11.74,12.25,2.42,1.36,9.92,3.94,12.56,3.06C104.12,37.52,104.32,31.42,106.38,31.28Z"/><path class="cls-4" d="M411.93,190.73c-5.84-4.67-18.51.62-24.26,4.37-5.2,3.39-22.07,16.51-11.45,32,1.69,2.47,2.86-7.25,7.83-14.94,2.15-3.32,4.77-7.23,7.39-8,2.41-.67,9,2.4,9.84,1.81,1.57-1.08,0-6.1,1.61-7.41,2.63-2.12,8.35,5.17,11.07,3.62C415.74,201.15,413.59,192.06,411.93,190.73Z"/></g></g></svg>